<svg xmlns="http://www.w3.org/2000/svg" height="512" viewBox="0 0 256 256" width="512"><g id="Layer_34"><g><g><g><path d="m86.208 54.269c.806 0 1.595.068 2.368.188v-1.748c0-.008 0-.017 0-.017.001-1.249 1.166-2.165 2.381-1.911 6.684 1.399 26.563 3.79 40.038-13.156.738-.928 2.106-1.016 2.953-.186 3.103 3.042 11.179 9.116 26.506 9.566 1.046.031 1.884.893 1.905 1.939.004.192.006.384.006.577v4.935c.772-.12 1.562-.188 2.368-.188 4.152 0 7.913 1.651 10.684 4.322v-27.705c0-11.591-9.484-21.075-21.075-21.075-3.931 0-7.607 1.111-10.766 3.005-3.691-6.157-10.413-10.315-18.075-10.315h-10.822c-20.945 0-38.082 17.137-38.082 38.082v17.064c2.636-2.109 5.973-3.377 9.611-3.377z" fill="#5b5d60"></path></g></g><g><path d="m164.731 54.268c-.806 0-1.595.072-2.367.192v2.498 25.429c0 .832-.038 1.655-.093 2.474.803.129 1.621.215 2.46.215 8.507 0 15.404-6.896 15.404-15.404 0-8.507-6.897-15.404-15.404-15.404z" fill="#f9d0b4"></path></g><g><path d="m88.575 82.387v-25.429-2.498c-.773-.12-1.561-.192-2.368-.192-8.507 0-15.403 6.897-15.403 15.404 0 8.508 6.896 15.404 15.403 15.404.84 0 1.657-.086 2.46-.215-.054-.818-.092-1.642-.092-2.474z" fill="#f9d0b4"></path></g><g><path d="m130.994 37.625c-13.475 16.946-33.354 14.555-40.038 13.156-1.215-.254-2.38.661-2.381 1.902v.025 29.678c0 20.292 16.602 36.894 36.894 36.894s36.894-16.602 36.894-36.894v-32.864c0-.193-.002-.385-.006-.577-.021-1.046-.859-1.909-1.905-1.939-15.327-.449-23.403-6.524-26.506-9.566-.846-.831-2.213-.743-2.952.185z" fill="#f9d0b4"></path></g><g><path d="m181.97 253.472c-4.343-.029-8.683-.625-12.893-1.82-1.543-.438-2.75-1.644-3.187-3.187-1.837-6.473-2.283-13.25-1.381-19.878l-.015-.015c.475-3.492 1.477-7.333 2.565-10.272l.014.014c2.353-6.367 6.063-12.346 11.179-17.461 5.115-5.115 11.094-8.826 17.461-11.179l-.014-.014c3.29-1.216 7.173-2.141 10.272-2.564l.015.015c.198-.027.395-.063.594-.088l-2.011-28.848c-.379-6.812-5.144-12.586-11.76-14.251l-30.681-7.723-16.827-8.297c-.998-.492-1.63-1.508-1.63-2.621v-10.847c-5.38 3.076-11.592 4.846-18.2 4.846-6.609 0-12.821-1.77-18.201-4.846v10.847c0 1.113-.632 2.129-1.63 2.621l-16.826 8.297-30.681 7.723c-6.616 1.666-11.381 7.44-11.761 14.252l-6.244 89.586c-.079 3.146 2.451 5.739 5.598 5.739h136.244z" fill="#3a70bf"></path></g><g><path d="m45.725 253.5c-3.147 0-5.676-2.593-5.598-5.739l6.244-89.587c.176-3.152 1.299-6.075 3.102-8.479l23.143 29.527c2.173 2.772 3.353 6.192 3.353 9.714v64.564z" fill="#f9d0b4"></path></g><g><path d="m75.969 188.936v37.564h-34.36l4.762-68.327c.176-3.152 1.299-6.075 3.102-8.479l23.143 29.527c2.173 2.773 3.353 6.193 3.353 9.715z" fill="#3a70bf"></path></g><g><path d="m75.969 188.936v23.564h-33.385l3.787-54.327c.176-3.152 1.299-6.075 3.102-8.479l23.143 29.527c2.173 2.773 3.353 6.193 3.353 9.715z" fill="#dae6f1"></path></g><g><path d="m178.251 200.852c5.115-5.115 11.094-8.826 17.461-11.179l-.014-.014c3.269-1.208 7.163-2.14 10.272-2.564l.015.015c.198-.027.395-.063.594-.088l-2.011-28.848c-.176-3.152-1.299-6.075-3.102-8.479l-23.143 29.527c-2.173 2.772-3.353 6.192-3.353 9.714v15.585c1.029-1.26 2.106-2.494 3.281-3.669z" fill="#fca265"></path></g><g><path d="m75.969 188.936v13.564h-32.687l3.09-44.327c.176-3.152 1.299-6.075 3.102-8.479l23.143 29.527c2.172 2.773 3.352 6.193 3.352 9.715z" fill="#fca265"></path></g><g><path d="m110.447 187.517h-13.413c-.852 0-1.543.691-1.543 1.543v5.644c0 .852.691 1.543 1.543 1.543h5.495v39.626c0 .852.691 1.543 1.543 1.543h6.375c.852 0 1.543-.691 1.543-1.543v-46.814c0-.851-.691-1.542-1.543-1.542z" fill="#dae6f1"></path></g><g><path d="m153.905 229.085h-18.615c6.047-4.336 11.431-9.522 15.309-15.735 2.425-3.884 3.654-7.789 3.654-11.608 0-9.67-6.414-15.023-15.82-15.023-4.994 0-9.152 1.563-12.358 4.647-3.198 3.077-4.986 7.476-5.317 13.073-.026.424.126.84.417 1.15.292.309.698.484 1.123.484h5.976c.821 0 1.499-.644 1.541-1.465.159-3.103.937-5.539 2.315-7.242 1.297-1.604 3.208-2.383 5.839-2.383 4.344 0 7.023 1.972 7.023 7.288 0 3.88-2.144 8.211-6.373 12.875-4.411 4.864-10.392 9.842-17.779 14.795-.427.286-.683.767-.683 1.282v4.382c0 .852.691 1.543 1.543 1.543h32.205c.852 0 1.543-.691 1.543-1.543v-4.98c0-.849-.69-1.54-1.543-1.54z" fill="#dae6f1"></path></g><g><path d="m92.239 134.51-3.426 1.689-30.681 7.723c-3.556.895-6.559 2.99-8.65 5.783l15.835 20.204 36.585-18.792c-4.149-5.597-7.304-11.369-9.663-16.607z" fill="#fc8c48"></path></g><g><path d="m192.807 143.922-30.681-7.723-3.426-1.689c-2.359 5.238-5.514 11.01-9.662 16.606l36.585 18.792 15.835-20.204c-2.091-2.792-5.095-4.887-8.651-5.782z" fill="#fc8c48"></path></g><g><path d="m122.457 169.827c1.857 1.08 4.168 1.08 6.025 0 15.644-9.096 24.92-23.554 30.218-35.317l-13.4-6.607c-.998-.492-1.63-1.508-1.63-2.621v-10.847c-5.38 3.076-11.592 4.846-18.2 4.846-6.609 0-12.821-1.77-18.201-4.846v10.847c0 1.113-.632 2.129-1.63 2.621l-13.4 6.607c5.298 11.763 14.573 26.22 30.218 35.317z" fill="#dae6f1"></path></g><g><path d="m123.187 156.069c1.407.818 3.158.818 4.565 0 11.411-6.635 18.35-17.036 22.435-25.756l-4.887-2.41c-.998-.492-1.63-1.508-1.63-2.621v-10.847c-5.38 3.076-11.592 4.846-18.2 4.846-6.609 0-12.821-1.77-18.201-4.846v10.847c0 1.113-.632 2.129-1.63 2.621l-4.887 2.41c4.085 8.72 11.023 19.12 22.435 25.756z" fill="#f9d0b4"></path></g><g><path d="m192.582 4.874h-2.07v-2.07c0-1.549-1.256-2.805-2.805-2.805s-2.805 1.256-2.805 2.805v2.07h-2.069c-1.549 0-2.805 1.256-2.805 2.805s1.256 2.805 2.805 2.805h2.069v2.07c0 1.549 1.256 2.805 2.805 2.805s2.805-1.256 2.805-2.805v-2.07h2.07c1.549 0 2.805-1.256 2.805-2.805s-1.256-2.805-2.805-2.805z" fill="#70d6f9"></path></g><g><path d="m35.75 157.361c-3.221-.6-5.76-3.087-6.372-6.243-.031-.159-.252-.159-.283 0-.612 3.156-3.151 5.643-6.372 6.243-.162.03-.162.247 0 .277 3.221.6 5.76 3.087 6.372 6.243.031.159.252.159.283 0 .612-3.156 3.151-5.643 6.372-6.243.162-.03.162-.246 0-.277z" fill="#f5c84c"></path></g><g><circle cx="200.47" cy="37" fill="#fc657e" r="3"></circle></g><g><circle cx="29.47" cy="181" fill="#70d6f9" r="3"></circle></g><g><circle cx="59.47" cy="51" fill="#87d147" r="3"></circle></g><g><path d="m229.05 191.677c-.438-1.543-1.644-2.749-3.187-3.187-16.378-4.648-34.719-.532-47.612 12.362-12.893 12.893-17.01 31.234-12.362 47.612.438 1.543 1.644 2.749 3.187 3.187 16.378 4.648 34.719.532 47.612-12.362s17.01-31.234 12.362-47.612z" fill="#af440e"></path></g><g><path d="m199.242 250.483-32.184-32.184c-1.234 3.338-2.089 6.784-2.564 10.272l24.476 24.476c3.488-.475 6.934-1.33 10.272-2.564z" fill="#dae6f1"></path></g><g><path d="m205.97 187.094c-3.488.475-6.934 1.33-10.272 2.564l32.184 32.184c1.234-3.338 2.089-6.784 2.564-10.272z" fill="#dae6f1"></path></g><g><circle cx="110.194" cy="71.215" r="4.215"></circle></g><g><circle cx="141.806" cy="71.215" r="4.215"></circle></g><g><path d="m125.655 101.866c5.578 0 10.87-2.458 14.519-6.746.895-1.051.768-2.629-.284-3.524-1.051-.894-2.628-.769-3.524.284-2.696 3.168-6.601 4.986-10.711 4.986-4.109 0-8.014-1.817-10.71-4.986-.897-1.053-2.475-1.178-3.524-.284-1.052.895-1.179 2.473-.284 3.524 3.647 4.287 8.939 6.746 14.518 6.746z"></path></g><g><path d="m104.529 125.661c-3.461 1.707-12.469 6.149-16.588 8.18l-30.424 7.657c-7.987 2.011-13.222 8.919-13.645 16.502-6.25 89.668-.071 1.011-6.244 89.587-.002.037-.004.075-.005.112-.113 4.556 3.54 8.301 8.097 8.301 157.237 0 136.514-.002 136.613-.002 12.885 0 26.103-4.924 36.118-14.94 13.125-13.125 18.031-32.334 12.999-50.063-.68-2.395-2.515-4.229-4.909-4.909-5.824-1.653-11.794-2.225-17.651-1.8l-1.83-26.252c-.428-7.705-5.735-14.544-13.646-16.537l-30.424-7.657c-23.153-11.416-13.628-6.72-16.589-8.18-.146-.072-.235-.217-.235-.378v-9.398c9.816-6.088 16.764-16.366 18.342-28.318 9.888.152 18.123-7.89 18.123-17.894 0-4.653-1.799-8.883-4.72-12.071v-26.716c0-12.999-10.576-23.575-23.575-23.575-3.43 0-6.827.769-9.949 2.239-4.432-5.942-11.472-9.549-18.89-9.549h-10.821c-22.377 0-40.582 18.206-40.582 40.583v15.942c-3.551 3.274-5.793 7.948-5.793 13.148 0 10.008 8.237 18.046 18.122 17.894 1.578 11.952 8.526 22.229 18.342 28.318v9.398c0 .161-.09.306-.236.378zm-45.791 20.685 30.681-7.722c.171-.043.337-.104.495-.182l1.135-.56c2.066 4.293 4.741 8.863 7.132 12.333l-32.174 16.526c-3.178-4.055-11.42-14.571-13.294-16.962 1.718-1.718 3.852-2.886 6.025-3.433zm14.728 104.654h-27.745c-1.705 0-3.116-1.386-3.1-3.129l1.315-18.871h29.53zm0-27h-29.181l.627-9h28.553v9zm0-14h-28.204l.348-5h27.856zm0-10h-27.507l2.905-41.688c.08-1.435.396-2.835.93-4.153 7.217 9.208 13.641 17.404 20.852 26.605 1.819 2.321 2.821 5.223 2.821 8.172v11.064zm90.015 49.148c.195.688.558 1.436.82 1.852h-85.835c0-6.421 0-51.771 0-62.063 0-4.061-1.379-8.059-3.886-11.256l-5.432-6.931 32.043-16.459c5.11 6.526 11.667 12.85 20.005 17.699h.001c2.631 1.529 5.903 1.531 8.538 0 8.338-4.848 14.895-11.172 20.005-17.698l32.043 16.459-5.432 6.93c-2.506 3.197-3.886 7.195-3.886 11.257v14.679c-9.935 12.629-13.533 29.506-8.984 45.531zm35.467-36.223 1.064 1.064-2.353 2.353-1.064-1.064c-.977-.976-2.559-.976-3.535 0-.977.976-.977 2.559 0 3.536l1.064 1.064-2.352 2.352-1.064-1.064c-.977-.977-2.559-.977-3.535 0-.977.976-.977 2.559 0 3.535l1.064 1.064-5.091 5.091-13.145-13.145c2.496-6.116 5.621-10.483 10.014-15.091 4.295-4.295 9.416-7.695 15.091-10.013l13.145 13.145-4.703 4.703-1.064-1.064c-.977-.977-2.559-.977-3.535 0-.977.975-.977 2.558-.001 3.534zm-19.338 21.466-2.883 2.883-9.555-9.555c.226-1.366.335-2.173 1.031-4.735zm-13.035-.2 6.618 6.618-5.313 5.313c-.976-3.998-1.409-7.596-1.305-11.931zm4.84 15.466 5.313-5.313 6.618 6.618c-3.908.086-7.88-.321-11.931-1.305zm18.402.707-9.554-9.555 2.883-2.883 11.408 11.408c-2.214.608-2.923.732-4.737 1.03zm25.1-12.842c-4.38 4.38-9.524 7.749-15.081 10.024l-13.156-13.156 5.091-5.091 1.064 1.064c.977.977 2.559.977 3.535 0 .977-.976.977-2.559 0-3.535l-1.064-1.064 2.353-2.353 1.064 1.064c.977.976 2.559.976 3.535 0 .977-.976.977-2.559 0-3.536l-1.063-1.063 2.352-2.352 1.064 1.064c.977.977 2.559.977 3.535 0 .977-.976.977-2.559 0-3.535l-1.064-1.064 4.703-4.703 13.156 13.156c-2.275 5.556-5.643 10.7-10.024 15.08zm11.812-20.363-11.408-11.408 2.883-2.883 9.554 9.554c-.263 1.603-.386 2.395-1.029 4.737zm.323-23.139c.965 3.951 1.392 7.957 1.304 11.929l-6.617-6.617zm-3.536-3.534-5.312 5.312-6.629-6.629c3.888-.086 7.718.286 11.941 1.317zm-18.411-.718 9.564 9.565-2.883 2.883-11.411-11.411c1.734-.477 3.273-.797 4.73-1.037zm-3.035-31.421 1.85 26.538c-10.243 1.794-19.344 6.491-26.454 13.238v-9.187c0-2.949 1.002-5.851 2.821-8.172l20.852-26.604c.534 1.323.85 2.732.931 4.187zm-42.187-20.464 1.134.559c.158.078.324.139.495.182l30.682 7.722c2.129.536 4.273 1.683 6.025 3.434l-13.295 16.961-32.174-16.526c2.272-3.296 5.035-7.972 7.133-12.332zm-4.513-2.225c-6.347 13.184-15.652 24.742-28.148 32.008-1.084.63-2.431.629-3.513 0-12.444-7.236-21.745-18.716-28.149-32.008l4.045-1.995c5.513 10.796 13.191 19.259 22.319 24.567h.001c2.18 1.268 4.894 1.269 7.078 0 9.13-5.308 16.808-13.772 22.32-24.567zm22.261-65.986c0 7.071-5.718 12.832-12.772 12.903.034-2.165.001 7.437.001-25.801 7.136.078 12.771 5.935 12.771 12.898zm-104.33 0c0-6.954 5.626-12.83 12.771-12.898 0 34.451-.032 23.664.001 25.802-7.055-.072-12.772-5.833-12.772-12.904zm12.869-17.903c-2.225.004-4.785.484-7.076 1.481v-12.667c0-19.621 15.962-35.583 35.582-35.583h10.821c6.462 0 12.565 3.487 15.929 9.1.341.569.894.979 1.537 1.141.642.16 1.324.06 1.894-.281 2.89-1.733 6.168-2.649 9.479-2.649 10.242 0 18.575 8.333 18.575 18.575v22.864c-2.441-1.261-5.3-1.961-8.052-1.981-.002-2.197.004-2.353-.006-2.873-.047-2.392-1.949-4.319-4.331-4.39-14.698-.431-22.26-6.334-24.829-8.852-1.866-1.831-4.971-1.708-6.66.415-9.353 11.761-23.579 15.193-37.568 12.265-2.553-.536-4.859 1.225-5.295 3.435zm4.901 30.618c0-13.724 0-19.426 0-29.032 15.368 2.953 31.21-1.103 41.527-13.741 5.565 5.219 14.649 9.4 27.261 9.873v.035 32.865c0 19.023-15.527 34.394-34.394 34.394-18.708 0-34.394-15.241-34.394-34.394zm15.669 47.758c1.865-.92 3.024-2.783 3.024-4.863v-6.775c9.885 4.314 21.279 4.418 31.401 0v6.775c0 2.08 1.159 3.943 3.024 4.863l2.649 1.307c-3.773 7.361-10.169 16.538-20.348 22.456-.635.367-1.418.368-2.053 0-10.177-5.918-16.574-15.095-20.348-22.456z"></path></g><g><path d="m110.443 185.018h-13.413c-2.229 0-4.044 1.813-4.044 4.043v5.644c0 2.229 1.814 4.043 4.044 4.043h2.994v37.126c0 2.229 1.814 4.043 4.044 4.043h6.375c2.229 0 4.043-1.813 4.043-4.043v-46.813c0-2.23-1.813-4.043-4.043-4.043zm-.957 49.899h-4.462v-38.669c0-1.381-1.119-2.5-2.5-2.5h-4.538v-3.73h11.5z"></path></g><g><path d="m153.901 226.585h-11.453c4.195-3.706 7.636-7.694 10.269-11.911 2.676-4.289 4.033-8.639 4.033-12.932 0-10.645-7.191-17.522-18.32-17.522-5.663 0-10.404 1.798-14.092 5.346-3.665 3.527-5.71 8.482-6.079 14.725-.066 1.108.332 2.207 1.093 3.013.761.808 1.833 1.271 2.942 1.271h5.977c2.156 0 3.93-1.687 4.037-3.837.131-2.564.724-4.515 1.763-5.798.505-.625 1.458-1.455 3.895-1.455 2.865 0 4.523.784 4.523 4.788 0 3.239-1.926 7.006-5.725 11.196-4.279 4.717-10.106 9.562-17.32 14.398-1.121.752-1.79 2.007-1.79 3.358v4.382c0 2.229 1.813 4.043 4.043 4.043h32.205c2.229 0 4.043-1.814 4.043-4.043v-4.979c-.001-2.229-1.814-4.043-4.044-4.043zm-.957 8.066h-30.291v-2.917c7.356-4.969 13.348-9.982 17.814-14.906 4.658-5.139 7.021-10.036 7.021-14.555 0-6.312-3.382-9.788-9.523-9.788-3.389 0-6.007 1.114-7.782 3.311-1.571 1.941-2.513 4.554-2.805 7.779h-4.05c.433-4.463 1.937-7.961 4.477-10.406 2.724-2.621 6.299-3.949 10.625-3.949 8.465 0 13.32 4.564 13.32 12.522 0 3.342-1.102 6.802-3.275 10.284-3.395 5.438-8.321 10.494-14.646 15.027-.882.633-1.255 1.763-.923 2.797s1.294 1.735 2.38 1.735h17.658z"></path></g></g></g></svg>