<svg xmlns="http://www.w3.org/2000/svg" height="512" viewBox="0 0 128 128" width="512"><circle cx="64" cy="63.803" fill="#f46060" r="34"></circle><circle cx="64" cy="63.803" fill="#fcf4ed" r="25.767"></circle><circle cx="64" cy="63.803" fill="#f46060" r="17.439"></circle><circle cx="64" cy="63.803" fill="#fcf4ed" r="9.512"></circle><path d="m64 65.553a1.75 1.75 0 0 1 -1.237-2.987l34.137-34.133a1.75 1.75 0 0 1 2.475 2.474l-34.138 34.134a1.744 1.744 0 0 1 -1.237.512z" fill="#102b5b"></path><path d="m89.246 29.637 6.983-6.982 2.339 6.581-6.983 6.982z" fill="#fcd163"></path><path d="m98.568 29.236-6.983 6.982 6.581 2.339 6.983-6.983z" fill="#edb443"></path><path d="m76.48 95.429v5.3a4.646 4.646 0 0 0 4.645 4.646h4.451a4.646 4.646 0 0 0 4.646-4.646v-15.282a34.083 34.083 0 0 1 -13.742 9.982zm-38.7-9.982v15.281a4.646 4.646 0 0 0 4.646 4.646h4.451a4.646 4.646 0 0 0 4.645-4.646v-5.3a34.083 34.083 0 0 1 -13.744-9.981z" fill="#2179c1"></path></svg>