<svg xmlns="http://www.w3.org/2000/svg" height="481pt" viewBox="0 -8 481.88 481" width="481pt"><path d="m425.902344 156.636719 2.472656-27.542969c.355469-3.960938-2.566406-7.460938-6.527344-7.816406-3.96875-.371094-7.460937 2.570312-7.8125 6.527344l-2.058594 22.898437h-33.074218v-22.410156c0-3.976563-3.222656-7.199219-7.199219-7.199219s-7.199219 3.222656-7.199219 7.199219v22.410156h-33.074218l-2.054688-22.898437c-.355469-3.960938-3.847656-6.90625-7.8125-6.527344-3.960938.355468-6.882812 3.851562-6.527344 7.8125l2.472656 27.542968c-.074218.414063-.128906.832032-.128906 1.265626 0 .875.179688 1.699218.464844 2.472656l4.515625 50.328125c.335937 3.742187 3.476563 6.558593 7.164063 6.558593.214843 0 .429687-.011718.652343-.03125 3.957031-.355468 6.882813-3.855468 6.527344-7.816406l-.601563-6.6875h28.40625v7.488282c0 3.976562 3.222657 7.199218 7.199219 7.199218 3.976563 0 7.199219-3.222656 7.199219-7.199218v-7.488282h28.40625l-.601562 6.6875c-.355469 3.960938 2.566406 7.460938 6.527343 7.816406.21875.019532.4375.03125.652344.03125 3.6875 0 6.828125-2.816406 7.164063-6.558593l4.519531-50.332031c.285156-.773438.460937-1.597657.460937-2.46875-.003906-.429688-.058594-.851563-.132812-1.261719zm-91.09375 31.6875-2.085938-23.222657h31.785156v23.222657zm44.097656 0v-23.222657h31.78125l-2.082031 23.222657zm0 0" fill="#a4c9ff"></path><path d="m473.804688 204.441406h-27.5625c-2.25 0-4.074219-1.824218-4.074219-4.078125v-191.847656c0-2.25 1.824219-4.074219 4.074219-4.074219h27.5625c2.25 0 4.074218 1.824219 4.074218 4.074219v191.847656c0 2.253907-1.824218 4.078125-4.074218 4.078125zm0 0" fill="#4671c6"></path><path d="m291.851562 63.304688c0 28.449218-23.0625 51.511718-51.511718 51.511718-28.449219 0-51.515625-23.0625-51.515625-51.511718 0-28.449219 23.066406-51.511719 51.515625-51.511719 28.449218 0 51.511718 23.0625 51.511718 51.511719zm0 0" fill="#f9a7a7"></path><g fill="#3762cc"><path d="m199.203125 98.308594c-.160156 0-.316406-.007813-.476563-.027344-1.082031-.128906-2.058593-.691406-2.714843-1.5625-7.316407-9.691406-11.1875-21.246094-11.1875-33.414062 0-12.167969 3.871093-23.71875 11.1875-33.414063.65625-.867187 1.632812-1.429687 2.714843-1.5625 1.070313-.125 2.164063.1875 3.003907.875 10.304687 8.402344 16.214843 20.832031 16.214843 34.101563 0 13.269531-5.910156 25.703124-16.214843 34.105468-.714844.582032-1.609375.898438-2.527344.898438zm.691406-59.945313c-4.636719 7.480469-7.070312 16.019531-7.070312 24.941407 0 8.925781 2.433593 17.464843 7.070312 24.941406 6.433594-6.675782 10.050781-15.550782 10.050781-24.941406 0-9.386719-3.621093-18.265626-10.050781-24.941407zm0 0"></path><path d="m274.9375 105.464844c-.402344 0-.804688-.058594-1.199219-.183594-18.421875-5.789062-30.796875-22.660156-30.796875-41.976562 0-19.320313 12.375-36.1875 30.792969-41.980469 1.359375-.421875 2.835937-.097657 3.886719.855469 11.585937 10.507812 18.226562 25.496093 18.226562 41.125 0 15.625-6.640625 30.617187-18.222656 41.125-.746094.675781-1.707031 1.035156-2.6875 1.035156zm-.992188-75.738282c-13.851562 5.332032-23.003906 18.550782-23.003906 33.578126 0 15.03125 9.152344 28.246093 23.003906 33.582031 8.863282-8.878907 13.902344-20.988281 13.902344-33.582031 0-12.589844-5.039062-24.699219-13.902344-33.578126zm0 0"></path><path d="m240.339844 118.816406-.765625-.015625c-1.355469-.015625-2.609375-.71875-3.332031-1.863281-9.007813-14.261719-13.96875-33.308594-13.96875-53.632812 0-20.324219 4.960937-39.367188 13.96875-53.628907.722656-1.144531 1.976562-1.847656 3.332031-1.863281l.765625-.019531c30.609375 0 55.511718 24.90625 55.511718 55.511719 0 30.609374-24.90625 55.511718-55.511718 55.511718zm1.527344-103c-7.488282 12.789063-11.59375 29.546875-11.59375 47.488282 0 17.941406 4.105468 34.703124 11.59375 47.488281 25.496093-.808594 45.984374-21.800781 45.984374-47.488281s-20.488281-46.675782-45.984374-47.488282zm0 0"></path><path d="m240.339844 77.429688c-18.605469 0-36.753906-2.382813-52.492188-6.882813-1.625-.464844-2.78125-1.902344-2.890625-3.589844-.078125-1.207031-.132812-2.421875-.132812-3.648437 0-30.609375 24.902343-55.511719 55.515625-55.511719 30.609375 0 55.511718 24.902344 55.511718 55.511719 0 1.230468-.054687 2.445312-.132812 3.652344-.109375 1.6875-1.265625 3.121093-2.890625 3.585937-15.734375 4.5-33.886719 6.882813-52.488281 6.882813zm-47.515625-13.8125c14.378906 3.808593 30.734375 5.8125 47.511719 5.8125 16.777343 0 33.136718-2.003907 47.511718-5.8125 0-.101563 0-.207032 0-.3125 0-26.195313-21.3125-47.511719-47.511718-47.511719-26.199219 0-47.511719 21.316406-47.511719 47.511719zm98.902343 3.082031h.019532zm0 0"></path></g><path d="m76.613281 213.953125c3.328125-1.675781 7.074219-2.640625 11.050781-2.640625h20.671876c.960937 0 1.902343.058594 2.84375.144531l-3.804688-10.1875c12.460938-7.195312 19.746094-20.960937 18.761719-35.308593l2.746093-.839844c3.105469-.949219 4.851563-4.234375 3.902344-7.339844-.949218-3.101562-4.234375-4.851562-7.335937-3.902344l-1.761719.539063-6.492188-21.238281c-6.109374-19.988282-27.265624-31.234376-47.253906-25.125-19.984375 6.109374-31.234375 27.265624-25.125 47.25l7.421875 24.277343c3.367188 11.007813 11.300781 19.355469 21.085938 23.621094zm0 0" fill="#f9cfcf"></path><path d="m76.613281 217.953125c-.535156 0-1.070312-.109375-1.574219-.324219-1.082031-.460937-1.90625-1.378906-2.25-2.507812l-2.765624-9.042969c-10.390626-5.089844-18.210938-14.226563-21.609376-25.332031l-7.417968-24.273438c-3.269532-10.6875-2.179688-22.007812 3.070312-31.875 5.246094-9.871094 14.023438-17.105468 24.710938-20.371094 10.6875-3.269531 22.007812-2.179687 31.875 3.070313 9.867187 5.246094 17.101562 14.019531 20.371094 24.710937l5.390624 17.636719c1.84375-.144531 3.710938.238281 5.390626 1.132813 2.332031 1.238281 4.039062 3.308594 4.808593 5.832031s.515625 5.195313-.722656 7.523437c-1.210937 2.277344-3.21875 3.960938-5.664063 4.753907-.128906 13.515625-6.902343 26.324219-17.964843 34.011719l2.667969 7.15625c.480468 1.292968.265624 2.738281-.570313 3.832031-.835937 1.089843-2.183594 1.679687-3.546875 1.550781-.816406-.074219-1.636719-.125-2.472656-.125h-20.675782c-3.222656 0-6.335937.742188-9.253906 2.210938-.5625.285156-1.179687.429687-1.796875.429687zm4.4375-107.570313c-3.328125 0-6.667969.496094-9.9375 1.496094-8.644531 2.640625-15.742187 8.492188-19.984375 16.472656-4.246094 7.984376-5.125 17.136719-2.484375 25.78125l7.421875 24.277344c2.894532 9.460938 9.765625 17.160156 18.859375 21.125 1.070313.46875 1.882813 1.378906 2.222657 2.496094l2.011718 6.582031c2.746094-.859375 5.59375-1.296875 8.503906-1.296875h17.699219l-1.734375-4.652344c-.683594-1.828124.054688-3.882812 1.746094-4.859374 11.0625-6.390626 17.648438-18.78125 16.773438-31.570313-.125-1.855469 1.042968-3.554687 2.820312-4.097656l2.746094-.839844c.648437-.199219.972656-.660156 1.109375-.914063.136719-.257812.335937-.78125.136719-1.429687-.195313-.648437-.65625-.972656-.914063-1.109375-.253906-.136719-.777344-.332031-1.429687-.136719l-1.757813.535157c-1.015625.3125-2.113281.207031-3.050781-.289063-.933594-.5-1.632813-1.347656-1.945313-2.363281l-6.496093-21.238282c-2.640626-8.644531-8.492188-15.746093-16.472657-19.988281-4.960937-2.644531-10.378906-3.980469-15.84375-3.980469zm0 0" fill="#3762cc"></path><path d="m241.707031 459.0625 51.992188-32.960938c3.042969-1.929687 3.945312-5.960937 2.015625-9.003906l-.640625-1.011718c-1.929688-3.042969-5.960938-3.945313-9.003907-2.015626l-59.269531 37.578126 3.015625 4.75c2.546875 4.019531 7.871094 5.210937 11.890625 2.664062zm0 0" fill="#f9a7a7"></path><path d="m11.589844 214.605469h42.609375c4.867187 0 8.816406 3.945312 8.816406 8.816406v68.460937c-5.613281 4.324219-10.710937 9.277344-15.175781 14.769532v-76.871094h-36.25c-4.191406 0-7.589844-3.394531-7.589844-7.585938 0-4.191406 3.394531-7.589843 7.589844-7.589843zm0 0" fill="#f9a7a7"></path><path d="m47.839844 310.652344c-.449219 0-.902344-.074219-1.339844-.226563-1.597656-.570312-2.660156-2.078125-2.660156-3.773437v-72.871094h-32.25c-6.390625 0-11.589844-5.195312-11.589844-11.585938 0-6.390624 5.199219-11.585937 11.589844-11.585937h42.609375c7.066406 0 12.8125 5.75 12.8125 12.816406v68.460938c0 1.242187-.574219 2.410156-1.558594 3.167969-5.375 4.140624-10.253906 8.890624-14.511719 14.125-.773437.949218-1.921875 1.472656-3.101562 1.472656zm-36.25-92.046875c-1.980469 0-3.589844 1.609375-3.589844 3.589843 0 1.976563 1.609375 3.585938 3.589844 3.585938h36.25c2.207031 0 4 1.789062 4 4v66.539062c2.277344-2.242187 4.675781-4.371093 7.171875-6.378906v-66.519531c0-2.65625-2.160157-4.816406-4.8125-4.816406zm51.421875 73.277343h.019531zm0 0" fill="#3762cc"></path><path d="m110.546875 158.757812c1.84375-.566406 2.882813-2.515624 2.320313-4.359374l-1.703126-5.5625c-.5625-1.84375-2.511718-2.878907-4.355468-2.316407s-2.878906 2.511719-2.320313 4.355469l1.703125 5.5625c.5625 1.84375 2.511719 2.878906 4.355469 2.320312zm0 0" fill="#3762cc"></path><path d="m251.730469 402.820312 24.074219-4.101562c2.132812-.363281 4.296874.4375 5.738281 2.125l4.160156 4.859375c1.042969 1.222656 1.621094 2.808594 1.621094 4.449219 0 2.339844-1.171875 4.511718-3.089844 5.714844l-37.441406 23.476562c-2.113281 1.324219-4.621094 1.789062-7.039063 1.296875-2.929687-.589844-5.453125-2.515625-6.894531-5.253906l-4.21875-8.035157c-1.269531-2.417968-.664063-5.445312 1.421875-7.125zm0 0" fill="#a4c9ff"></path><path d="m241.652344 444.835938c-.894532 0-1.796875-.089844-2.691406-.269532-4.121094-.832031-7.636719-3.5-9.644532-7.316406l-4.214844-8.035156c-2.167968-4.125-1.136718-9.214844 2.457032-12.101563l21.664062-17.414062c.535156-.425781 1.164063-.710938 1.835938-.824219l24.070312-4.101562c3.546875-.59375 7.078125.695312 9.449219 3.464843l4.164063 4.863281c1.664062 1.949219 2.582031 4.453126 2.582031 7.046876 0 3.695312-1.898438 7.183593-4.964844 9.105468l-37.445313 23.476563c-2.207031 1.390625-4.714843 2.105469-7.261718 2.105469zm11.777344-38.246094-20.859376 16.761718c-.597656.476563-.765624 1.421876-.386718 2.144532l4.21875 8.035156c.878906 1.675781 2.390625 2.839844 4.140625 3.195312 1.414062.285157 2.878906.011719 4.125-.769531l37.445312-23.476562c.75-.46875 1.214844-1.359375 1.214844-2.324219 0-.691406-.234375-1.347656-.664063-1.847656l-4.160156-4.859375c-.527344-.617188-1.285156-.910157-2.03125-.785157zm0 0" fill="#3762cc"></path><path d="m180.929688 308.613281c7.679687 0 15.214843 2.304688 21.792968 6.667969 6.082032 4.035156 11.136719 9.695312 14.6875 16.449219l38.445313 67.433593c.769531 1.347657.480469 3.113282-.667969 4.078126l-24.394531 20.574218c-1.285157 1.082032-3.136719.75-4.039063-.722656l-32.199218-52.460938-3.480469-5.285156c-1.585938-2.40625-4.125-3.832031-6.828125-3.832031h-97.058594c-13.351562 0-24.175781-11.878906-24.175781-26.53125v-26.371094zm0 0" fill="#4671c6"></path><path d="m229.078125 428.453125c-.347656 0-.695313-.027344-1.042969-.085937-1.929687-.3125-3.640625-1.472657-4.691406-3.183594l-32.199219-52.457032-3.414062-5.179687c-.835938-1.273437-2.140625-2.03125-3.488281-2.03125h-97.058594c-15.535156 0-28.171875-13.699219-28.171875-30.535156v-26.371094c0-2.207031 1.789062-4 4-4h117.914062c8.472657 0 16.773438 2.539063 24.007813 7.335937 6.621094 4.394532 12.160156 10.589844 16.015625 17.921876l38.378906 67.3125c1.714844 3.003906 1.039063 6.921874-1.5625 9.121093l-24.394531 20.570313c-1.21875 1.027344-2.742188 1.582031-4.292969 1.582031zm-162.066406-115.839844v22.371094c0 12.421875 9.050781 22.53125 20.175781 22.53125h97.058594c4.046875 0 7.847656 2.105469 10.167968 5.628906l3.484376 5.289063 31.5 51.324218 22.691406-19.128906-38.152344-66.914062c-3.296875-6.265625-7.917969-11.445313-13.425781-15.101563-5.917969-3.925781-12.691407-6-19.582031-6zm185.371093 88.53125h.019532zm0 0" fill="#3762cc"></path><path d="m86.914062 361.515625h51.972657v-119.65625c0-16.871094-13.679688-30.546875-30.546875-30.546875h-20.675782c-13.613281 0-24.648437 11.039062-24.648437 24.652344v101.648437c-.003906 13.199219 10.699219 23.902344 23.898437 23.902344zm0 0" fill="#6bdddd"></path><path d="m138.886719 365.515625h-51.972657c-15.382812 0-27.902343-12.519531-27.902343-27.902344v-101.648437c0-15.800782 12.855469-28.65625 28.652343-28.65625h20.675782c19.046875 0 34.546875 15.5 34.546875 34.550781v119.652344c0 2.210937-1.789063 4.003906-4 4.003906zm-51.222657-150.203125c-11.386718 0-20.652343 9.261719-20.652343 20.652344v101.648437c0 10.976563 8.929687 19.902344 19.902343 19.902344h47.972657v-115.65625c0-14.636719-11.910157-26.546875-26.546875-26.546875zm0 0" fill="#3762cc"></path><path d="m203.636719 370.066406c0 50.308594-40.785157 91.09375-91.09375 91.09375-50.308594 0-91.089844-40.785156-91.089844-91.09375s40.78125-91.089844 91.089844-91.089844c50.308593 0 91.09375 40.78125 91.09375 91.089844zm0 0" fill="#ffea92"></path><path d="m112.542969 465.160156c-52.433594 0-95.089844-42.65625-95.089844-95.09375 0-52.433594 42.65625-95.089844 95.089844-95.089844 52.433593 0 95.09375 42.65625 95.09375 95.089844 0 52.4375-42.660157 95.09375-95.09375 95.09375zm0-182.183594c-48.019531 0-87.089844 39.070313-87.089844 87.089844 0 48.023438 39.070313 87.09375 87.089844 87.09375 48.023437 0 87.09375-39.070312 87.09375-87.09375 0-48.019531-39.070313-87.089844-87.09375-87.089844zm0 0" fill="#3762cc"></path><path d="m183.175781 370.066406c0 39.011719-31.621093 70.632813-70.632812 70.632813-39.007813 0-70.632813-31.621094-70.632813-70.632813 0-39.007812 31.625-70.628906 70.632813-70.628906 39.011719 0 70.632812 31.621094 70.632812 70.628906zm0 0" fill="#a4c9ff"></path><path d="m112.542969 406.574219c-20.128907 0-36.507813-16.375-36.507813-36.507813 0-20.128906 16.378906-36.507812 36.507813-36.507812 20.132812 0 36.507812 16.378906 36.507812 36.507812 0 20.132813-16.375 36.507813-36.507812 36.507813zm0 0" fill="#e0ebfc"></path><path d="m95.59375 168.253906c0 7.398438-6 13.398438-13.398438 13.398438-7.402343 0-13.398437-6-13.398437-13.398438 0-7.398437 5.996094-13.398437 13.398437-13.398437 7.398438 0 13.398438 6 13.398438 13.398437zm0 0" fill="#f9cfcf"></path><path d="m30.726562 132.421875.003907.003906c3.441406-11.835937 12.964843-21.9375 26.128906-25.960937 2.796875-.855469 5.726563.597656 6.535156 3.246094l.308594 1.007812c-.363281-1.1875-.335937-2.398438.003906-3.503906h-.003906s.066406-.410156.433594-1.050782c.472656-.894531 1.160156-1.679687 2.027343-2.261718 1.175782-.949219 2.914063-1.964844 5.460938-2.863282.007812-.003906.011719-.003906.015625-.003906 2.648437-.933594 6.167969-1.734375 10.859375-2.191406 3.320312-.628906 6.640625-.75 9.871094-.402344h.03125v.003906c1.835937.195313 3.636718.546876 5.390625 1.035157.757812.199219 1.152343.34375 1.152343.34375 9.984376 3.167969 18.25 10.925781 21.507813 21.578125l3.523437 11.523437c.164063.535157-.140624 1.101563-.6875 1.269531l-47.929687 14.652344 7.636719 24.980469 2.882812 9.425781-2.171875 13.5625c-.0625.382813-.34375.703125-.722656.816406l-3.9375 1.207032-1.40625.429687-9.667969 2.953125c-1.519531.464844-3.078125.707032-4.625.730469-.050781-.003906-1.773437-.179687-2.691406-.980469-2.171875-1.886718-7.289062-6.339844-11.949219-10.410156-6.917969-6.039062-12.15625-13.75-15.035156-22.425781-7.886719-23.769531-2.945313-36.714844-2.945313-36.714844zm0 0" fill="#4671c6"></path><path d="m63.351562 206.953125c-.132812 0-.261718-.003906-.390624-.019531-.710938-.070313-3.167969-.414063-4.925782-1.945313-2.171875-1.886719-7.292968-6.339843-11.957031-10.414062-7.527344-6.570313-13.128906-14.933594-16.199219-24.179688-7.933594-23.902343-3.476562-37.753906-2.929687-39.277343 4.011719-13.5625 14.742187-24.199219 28.742187-28.480469 2.015625-.617188 4.074219-.53125 5.90625.109375.609375-.769532 1.351563-1.480469 2.1875-2.0625 1.699219-1.335938 3.867188-2.480469 6.457032-3.398438.042968-.015625.085937-.03125.132812-.046875v.003907c3.324219-1.148438 7.160156-1.925782 11.5625-2.363282 3.546875-.660156 7.164062-.804687 10.738281-.429687.054688.003906.117188.007812.167969.011719 2.019531.222656 4.046875.613281 6.023438 1.164062.375.097656.894531.242188 1.332031.398438 11.574219 3.683593 20.574219 12.730468 24.082031 24.207031l3.523438 11.523437c.808593 2.644532-.691407 5.453125-3.34375 6.261719l-44.105469 13.484375 9.351562 30.578125c.175781.585937.21875 1.203125.121094 1.804687l-2.171875 13.5625c-.304688 1.882813-1.679688 3.453126-3.503906 4.011719l-15.007813 4.585938c-1.851562.570312-3.78125.871093-5.726562.90625-.023438.003906-.046875.003906-.066407.003906zm-.070312-8.003906s.003906.003906 0 0c0 .003906 0 .003906 0 0zm-.136719-.121094c.109375.042969.28125.085937.4375.117187 1.097657-.042968 2.179688-.226562 3.222657-.546874l13.246093-4.050782 1.734375-10.8125-10.25-33.519531c-.644531-2.113281.542969-4.347656 2.65625-4.992187l45.089844-13.789063-2.652344-8.664063c-2.742187-8.972656-9.804687-16.050781-18.890625-18.933593-.058593-.019531-.117187-.039063-.175781-.0625-.085938-.027344-.347656-.113281-.765625-.222657-1.640625-.457031-3.238281-.761718-4.820313-.933593-.015624 0-.027343-.003907-.039062-.003907-2.890625-.304687-5.8125-.1875-8.691406.359376-.117188.019531-.234375.039062-.355469.050781-3.929687.382812-7.269531 1.050781-9.917969 1.980469-.027344.011718-.054687.019531-.082031.03125-2.230469.792968-3.523437 1.621093-4.214844 2.183593-.089843.070313-.183593.136719-.277343.203125-.296876.199219-.542969.476563-.714844.800782 0 0-.070313.132812-.105469.195312-.011719.054688-.027344.109375-.042969.164062-.121094.390626-.121094.785157-.003906 1.167969.648438 2.109375-.542969 4.347657-2.65625 4.992188-2.117188.644531-4.347656-.542969-4.992188-2.65625l-.308593-1.003907c-.160157-.527343-.867188-.792968-1.542969-.589843-11.476562 3.507812-20.246094 12.199219-23.457031 23.25-.035157.128906-.078125.25-.125.367187-.375 1.152344-3.898438 13.113282 3.023437 33.96875 2.621094 7.890625 7.414063 15.042969 13.871094 20.675782 4.554688 3.976562 9.554688 8.324218 11.800781 10.273437zm4.507813-90.957031v.007812c0-.003906 0-.003906 0-.007812zm0-.007813v.007813c0-.003906 0-.003906 0-.007813zm0-.007812v.007812c0-.003906 0-.007812 0-.007812zm0 0" fill="#3762cc"></path><path d="m95.59375 168.253906c0 7.398438-6 13.398438-13.398438 13.398438-7.402343 0-13.398437-6-13.398437-13.398438 0-7.398437 5.996094-13.398437 13.398437-13.398437 7.398438 0 13.398438 6 13.398438 13.398437zm0 0" fill="#f9cfcf"></path><path d="m237.113281 464.398438c-4.179687 0-8.277343-2.074219-10.675781-5.859376l-3.015625-4.75c-1.183594-1.867187-.628906-4.335937 1.238281-5.519531l59.269532-37.578125c4.898437-3.109375 11.417968-1.648437 14.523437 3.25l.640625 1.015625c3.105469 4.898438 1.648438 11.414063-3.25 14.519531l-51.996094 32.964844c-2.085937 1.324219-4.421875 1.957032-6.734375 1.957032zm4.59375-5.335938h.019531zm-9.386719-6.179688.875 1.375c1.359376 2.148438 4.21875 2.789063 6.371094 1.429688l51.992188-32.964844c1.175781-.746094 1.527344-2.308594.78125-3.480468l-.640625-1.015626c-.746094-1.175781-2.3125-1.523437-3.484375-.777343zm0 0" fill="#3762cc"></path><path d="m112.542969 444.703125c-41.152344 0-74.632813-33.480469-74.632813-74.632813 0-41.152343 33.480469-74.632812 74.632813-74.632812 41.152343 0 74.632812 33.480469 74.632812 74.632812 0 41.152344-33.480469 74.632813-74.632812 74.632813zm0-141.265625c-36.742188 0-66.632813 29.890625-66.632813 66.628906 0 36.742188 29.894532 66.632813 66.632813 66.632813 36.742187 0 66.632812-29.890625 66.632812-66.632813 0-36.738281-29.890625-66.628906-66.632812-66.628906zm0 0" fill="#3762cc"></path><path d="m226.800781 451.644531 12.019531-7.617187-36.703124-57.46875c-1.152344 6.304687-2.941407 12.382812-5.320313 18.160156l32.085937 50.246094.015626-.011719zm0 0" fill="#e0ebfc"></path><path d="m228.886719 458.957031c-.25 0-.503907-.023437-.753907-.070312-1.078124-.207031-2.027343-.84375-2.617187-1.769531l-32.089844-50.246094c-.703125-1.097656-.824219-2.46875-.328125-3.675782 2.28125-5.542968 3.996094-11.382812 5.085938-17.355468.296875-1.621094 1.550781-2.890625 3.167968-3.207032 1.605469-.320312 3.253907.386719 4.136719 1.769532l36.703125 57.46875c.574219.898437.765625 1.984375.535156 3.023437-.230468 1.039063-.863281 1.941407-1.761718 2.507813l-8.640625 5.480468c1.078125 1.785157.609375 4.109376-1.097657 5.328126-.6875.488281-1.507812.746093-2.339843.746093zm-27.613281-54.664062 26.730468 41.855469 5.289063-3.351563-29.453125-46.117187c-.75 2.578124-1.609375 5.121093-2.566406 7.613281zm0 0" fill="#3762cc"></path><path d="m131.265625 205.945312c.085937.140626.167969.285157.230469.441407l12.597656 31.132812-12.597656-31.132812c-.605469-1.503907-2.320313-2.230469-3.824219-1.621094l-43.796875 17.714844c-10.101562 4.085937-14.980469 15.589843-10.894531 25.691406 4.085937 10.101563 15.589843 14.976563 25.691406 10.890625l43.796875-17.714844c1.5-.609375 2.226562-2.316406 1.625-3.820312zm0 0" fill="#6bdddd"></path><path d="m91.300781 264.503906c-9.390625 0-18.292969-5.609375-22.027343-14.832031-4.90625-12.128906.96875-25.992187 13.097656-30.898437l43.800781-17.714844c3.542969-1.433594 7.601563.285156 9.03125 3.832031l12.59375 31.128906c.015625.042969.03125.085938.050781.128907 1.335938 3.527343-.386718 7.492187-3.882812 8.90625l-43.796875 17.714843c-2.902344 1.175781-5.910157 1.734375-8.867188 1.734375zm36.839844-55.613281-42.769531 17.300781c-3.894532 1.574219-6.941406 4.574219-8.582032 8.441406-1.640624 3.867188-1.675781 8.144532-.101562 12.039063 3.253906 8.042969 12.445312 11.9375 20.484375 8.683594l42.808594-17.316407zm12.238281 30.128906h.019532zm0 0" fill="#3762cc"></path><path d="m228.742188 142.710938c.269531-1.054688.289062-2.160157.011718-3.226563l-.042968-.152344c-.441407-1.6875-1.554688-3.121093-3.074219-3.96875l-14.058594-7.863281c-1.464844-.820312-3.195313-1.035156-4.816406-.59375-1.789063.488281-3.277344 1.71875-4.085938 3.386719l-7.121093 14.609375-.453126.832031c-.609374-1.75-1.628906-3.34375-3.042968-4.582031-1.535156-.472656-2.167969 1.050781-2.167969 1.050781l-1.90625 16.671875-1.636719 3.019531-55.085937 44.054688c.085937.140625.171875.285156.234375.441406l12.59375 31.132813-12.59375-31.132813c-.0625-.160156-.144532-.300781-.230469-.441406l12.828125 31.578125 59.226562-59.699219 13.335938-12.230469c.542969-.5.984375-1.085937 1.371094-1.710937l.023437.019531.214844-.414062c.0625-.121094.15625-.230469.214844-.359376l.058593-.121093 4.3125-7.375 4.425782-9.679688.976562-1.90625c.210938-.410156.363282-.84375.480469-1.285156l.023437-.046875zm0 0" fill="#f9cfcf"></path><path d="m144.09375 241.527344c-.265625 0-.527344-.023438-.789062-.078125-1.316407-.261719-2.414063-1.171875-2.917969-2.414063l-12.828125-31.582031c-.628906-1.546875-.21875-3.277344.925781-4.382813.089844-.085937.179687-.167968.28125-.246093l54.449219-43.546875.882812-1.625 1.8125-15.902344c.042969-.371094.136719-.730469.28125-1.078125 1.007813-2.429687 3.757813-4.359375 7.046875-3.34375.449219.136719.871094.355469 1.246094.640625l4.589844-9.429688c1.316406-2.703124 3.738281-4.703124 6.636719-5.492187 2.652343-.71875 5.425781-.375 7.820312.960937l14.054688 7.859376c2.457031 1.375 4.277343 3.726562 4.992187 6.449218.449219 1.707032.480469 3.386719.125 5.007813-.039063.238281-.09375.476562-.175781.710937-.195313.675782-.433594 1.28125-.722656 1.84375l-.976563 1.898438-4.34375 9.515625c-.054687.121093-.117187.242187-.183594.359375l-4.242187 7.253906c-.117188.230469-.214844.398438-.316406.554688l-.136719.265624c-.140625.277344-.308594.527344-.503907.757813-.539062.796875-1.113281 1.472656-1.742187 2.054687l-13.339844 12.234376-59.089843 59.570312c-.757813.765625-1.78125 1.183594-2.835938 1.183594zm-7.964844-34.351563 9.398438 23.226563 54.953125-55.390625 13.46875-12.363281c.210937-.195313.433593-.480469.675781-.871094.03125-.050782.0625-.101563.097656-.152344.058594-.105469.160156-.277344.234375-.394531.046875-.089844.09375-.1875.125-.242188l4.210938-7.199219 4.339843-9.5 1.058594-2.066406c.050782-.101562.101563-.238281.152344-.410156.003906-.03125.011719-.0625.023438-.09375.105468-.421875.109374-.84375.011718-1.21875-.203125-.785156-.625-1.328125-1.199218-1.648438l-14.054688-7.863281c-.558594-.308593-1.203125-.390625-1.816406-.222656-.671875.183594-1.234375.648437-1.539063 1.277344l-7.652343 15.597656c-.753907 1.390625-2.25 2.207031-3.839844 2.082031-.597656-.046875-1.164063-.230468-1.664063-.515625l-1.15625 10.125c-.058593.507813-.214843 1.003907-.457031 1.453125l-1.636719 3.015625c-.253906.472657-.597656.886719-1.015625 1.21875zm0 0" fill="#3762cc"></path><path d="m240.339844 118.816406c-30.613282 0-55.515625-24.902344-55.515625-55.511718 0-30.609376 24.902343-55.511719 55.515625-55.511719 30.609375 0 55.511718 24.90625 55.511718 55.511719 0 30.609374-24.90625 55.511718-55.511718 55.511718zm0-103.023437c-26.199219 0-47.515625 21.316406-47.515625 47.511719 0 26.199218 21.316406 47.511718 47.515625 47.511718 26.195312 0 47.511718-21.3125 47.511718-47.511718 0-26.195313-21.316406-47.511719-47.511718-47.511719zm0 0" fill="#3762cc"></path><path d="m434.804688 129.8125h-128.265626c-4.34375 0-7.867187-3.523438-7.867187-7.867188v-12.839843c0-4.34375 3.523437-7.867188 7.867187-7.867188h128.265626c4.34375 0 7.867187 3.523438 7.867187 7.867188v12.839843c0 4.347657-3.523437 7.867188-7.867187 7.867188zm0 0" fill="#b9befc"></path><path d="m473.804688 208.441406h-27.5625c-4.453126 0-8.074219-3.625-8.074219-8.078125v-191.847656c0-4.453125 3.621093-8.074219 8.074219-8.074219h27.5625c4.453124 0 8.074218 3.621094 8.074218 8.074219v191.847656c0 4.453125-3.621094 8.078125-8.074218 8.078125zm-27.5625-200-.074219 191.921875 27.636719.078125c.042968 0 .074218-.035156.074218-.078125v-191.847656zm0 0" fill="#3762cc"></path><path d="m434.804688 133.8125h-128.265626c-6.542968 0-11.867187-5.324219-11.867187-11.867188v-12.839843c0-6.542969 5.324219-11.867188 11.867187-11.867188h128.265626c6.542968 0 11.867187 5.324219 11.867187 11.867188v12.839843c0 6.542969-5.324219 11.867188-11.867187 11.867188zm-128.269532-28.570312c-2.132812 0-3.863281 1.734374-3.863281 3.867187v12.839844c0 2.128906 1.730469 3.863281 3.863281 3.863281h128.269532c2.128906 0 3.867187-1.734375 3.867187-3.863281v-12.839844c0-2.132813-1.734375-3.867187-3.867187-3.867187zm0 0" fill="#3762cc"></path></svg>