<svg xmlns="http://www.w3.org/2000/svg" height="512pt" viewBox="0 -17 512 511" width="512pt"><path d="m407.863281 417.042969h95.457031c4.792969 0 8.679688 3.882812 8.679688 8.675781v26.035156c0 9.585938-7.769531 17.355469-17.355469 17.355469h-69.425781c-9.582031 0-17.355469-7.769531-17.355469-17.355469zm0 0" fill="#e64c3c"></path><path d="m410.738281 425.71875c-2.90625.007812-5.621093-1.445312-7.230469-3.863281l-115.9375-173.992188c-2.652343-3.988281-1.574218-9.371093 2.410157-12.027343s9.371093-1.582032 12.03125 2.398437l115.9375 173.996094c1.773437 2.660156 1.941406 6.082031.433593 8.902343-1.507812 2.820313-4.445312 4.585938-7.644531 4.585938zm0 0" fill="#cf976a"></path><path d="m130.167969 269.605469v-7.550781l-17.355469-35.925782c-.066406-9.558594-7.796875-17.289062-17.355469-17.359375-9.574219.03125-17.328125 7.785157-17.355469 17.359375v48.160156" fill="#393f4a"></path><path d="m190.914062 203.390625v40.09375l66.996094 9.199219 5.292969.605468c11.335937 1.328126 21.296875 8.140626 26.652344 18.222657 5.351562 10.082031 5.414062 22.148437.164062 32.28125l-2.433593 4.6875-38.875 74.976562c-3.160157 6.136719-8.640626 10.761719-15.21875 12.84375-6.582032 2.085938-13.722657 1.460938-19.839844-1.734375-2.761719-1.410156-5.234375-3.324218-7.289063-5.640625l.257813-37.574219v-.089843l25.601562-49.203125-41.308594-6.160156-17.875-2.605469-59.097656-23.6875c-.726562-2.453125-1.105468-4.996094-1.128906-7.550781v-144.402344c0-21.566406 17.484375-39.050782 39.050781-39.050782 21.566407 0 39.050781 17.484376 39.050781 39.050782zm0 0" fill="#5d4c72"></path><path d="m312.40625 425.71875c0 23.964844-19.425781 43.390625-43.390625 43.390625-23.960937 0-43.386719-19.425781-43.386719-43.390625 0-23.960938 19.425782-43.386719 43.386719-43.386719 23.964844 0 43.390625 19.425781 43.390625 43.386719zm0 0" fill="#556080"></path><path d="m208.269531 369.3125c0 55.117188-44.679687 99.796875-99.796875 99.796875-55.113281 0-99.792968-44.679687-99.792968-99.796875 0-55.113281 44.679687-99.796875 99.792968-99.796875 55.117188 0 99.796875 44.683594 99.796875 99.796875zm0 0" fill="#556080"></path><path d="m108.472656 477.789062c-59.90625 0-108.472656-48.566406-108.472656-108.476562 0-59.90625 48.566406-108.472656 108.472656-108.472656 59.910156 0 108.476563 48.566406 108.476563 108.472656-.066407 59.882812-48.59375 108.410156-108.476563 108.476562zm0-199.59375c-50.320312 0-91.117187 40.792969-91.117187 91.117188s40.796875 91.121094 91.117187 91.121094c50.324219 0 91.121094-40.796875 91.121094-91.121094-.058594-50.300781-40.820312-91.0625-91.121094-91.117188zm0 0" fill="#2c2f38"></path><path d="m269.015625 477.789062c-28.753906 0-52.066406-23.3125-52.066406-52.070312 0-28.753906 23.3125-52.066406 52.066406-52.066406 28.757813 0 52.070313 23.3125 52.070313 52.066406-.03125 28.746094-23.324219 52.039062-52.070313 52.070312zm0-86.78125c-19.167969 0-34.710937 15.542969-34.710937 34.710938 0 19.171875 15.542968 34.714844 34.710937 34.714844 19.171875 0 34.714844-15.542969 34.714844-34.714844-.023438-19.160156-15.550781-34.691406-34.714844-34.710938zm0 0" fill="#2c2f38"></path><path d="m130.167969 369.3125c0 11.984375-9.710938 21.695312-21.695313 21.695312-11.980468 0-21.691406-9.710937-21.691406-21.695312 0-11.980469 9.710938-21.695312 21.691406-21.695312 11.984375 0 21.695313 9.714843 21.695313 21.695312zm0 0" fill="#8697cb"></path><path d="m190.914062 39.550781c0 21.566407-17.484374 39.050781-39.050781 39.050781-21.566406 0-39.050781-17.484374-39.050781-39.050781 0-21.566406 17.484375-39.050781 39.050781-39.050781 21.566407 0 39.050781 17.484375 39.050781 39.050781zm0 0" fill="#fdd7ad"></path><path d="m277.695312 425.71875c0 4.792969-3.886718 8.679688-8.679687 8.679688s-8.675781-3.886719-8.675781-8.679688 3.882812-8.675781 8.675781-8.675781 8.679687 3.882812 8.679687 8.675781zm0 0" fill="#8697cb"></path><path d="m139.917969 139.660156c-2.757813 9.425782.117187 19.601563 7.40625 26.1875l29.105469 26.300782 10.761718 9.179687 78.546875 44.125c12.539063 7.042969 28.414063 2.59375 35.460938-9.945313 1.347656-2.421874 2.308593-5.039062 2.847656-7.753906 2.144531-11.027344-3.007813-22.1875-12.789063-27.707031l-74.335937-41.707031-29-24.867188-6.191406-5.628906c-6.527344-5.9375-15.65625-8.09375-24.152344-5.707031-8.496094 2.390625-15.160156 8.984375-17.640625 17.453125zm0 0" fill="#7d6599"></path></svg>