<svg xmlns="http://www.w3.org/2000/svg" id="Capa_1" height="512" viewBox="0 0 512 512" width="512"><g><path d="m346.316 286.097c-2.399 0-4.761-1.131-6.241-3.246l-166.008-237.083c-2.411-3.444-1.574-8.19 1.869-10.601s8.19-1.575 10.601 1.869l166.007 237.083c2.411 3.444 1.574 8.19-1.869 10.601-1.329.931-2.851 1.377-4.359 1.377z" fill="#bed9fd"></path><path d="m150.311 246.685c-2.399 0-4.761-1.131-6.241-3.246-2.411-3.443-1.574-8.189 1.869-10.601l225.999-158.246c3.444-2.411 8.19-1.575 10.601 1.869s1.574 8.189-1.869 10.601l-225.999 158.246c-1.329.931-2.852 1.377-4.36 1.377z" fill="#ddebfd"></path><path d="m297.564 307.228c-2.399 0-4.761-1.131-6.241-3.246l-153.787-219.63c-2.411-3.444-1.574-8.189 1.869-10.601 3.443-2.411 8.19-1.575 10.601 1.869l153.786 219.63c2.411 3.444 1.574 8.189-1.869 10.601-1.329.931-2.852 1.377-4.359 1.377z" fill="#bed9fd"></path><path d="m125.248 186.236c-2.399 0-4.761-1.131-6.241-3.246-2.411-3.444-1.574-8.19 1.869-10.601l202.83-142.023c3.443-2.411 8.19-1.574 10.601 1.869 2.411 3.444 1.574 8.19-1.869 10.601l-202.83 142.023c-1.329.93-2.852 1.377-4.36 1.377z" fill="#ddebfd"></path><path d="m382.839 247.518c-2.399 0-4.761-1.131-6.241-3.246l-153.787-219.63c-2.411-3.444-1.574-8.189 1.869-10.601 3.444-2.411 8.19-1.575 10.601 1.869l153.786 219.63c2.411 3.443 1.574 8.189-1.869 10.601-1.328.93-2.851 1.377-4.359 1.377z" fill="#bed9fd"></path><path d="m377.484 260.706h31.806v170.038h-31.806z" fill="#ddebfd" transform="matrix(.819 -.574 .574 .819 -127.156 288.161)"></path><path d="m357.649 266.96-26.054 18.243 28.641 40.904c4.635-2.486 9.17-5.258 13.573-8.342 4.404-3.083 8.559-6.396 12.481-9.902z" fill="#bed9fd"></path><path d="m442.035 386.731-26.753 18.733c-4.601 3.221-5.719 9.562-2.497 14.163l49.78 71.093c1.497 2.138 4.444 2.658 6.582 1.161l35.671-24.977c2.138-1.497 2.658-4.444 1.161-6.582l-49.78-71.093c-3.223-4.602-9.564-5.72-14.164-2.498z" fill="#8c818f"></path><g fill="#766d78"><path d="m111.771 411.993c-1.688 0-3.376-.644-4.665-1.932-2.576-2.576-2.576-6.753 0-9.329l38.363-38.362c2.576-2.576 6.753-2.577 9.329 0 2.576 2.576 2.576 6.753 0 9.329l-38.363 38.362c-1.287 1.287-2.976 1.932-4.664 1.932z"></path><path d="m30.295 414.273c-2.277 0-4.492-1.18-5.715-3.292-1.826-3.153-.75-7.189 2.403-9.014l107.609-62.302c3.153-1.826 7.188-.75 9.014 2.403s.75 7.189-2.403 9.014l-107.609 62.302c-1.04.603-2.177.889-3.299.889z"></path><path d="m140.635 439.75c-1.122 0-2.259-.286-3.299-.889-3.153-1.825-4.229-5.861-2.403-9.014l24.342-42.044c1.825-3.153 5.862-4.229 9.014-2.403 3.153 1.825 4.229 5.861 2.403 9.014l-24.342 42.044c-1.223 2.111-3.439 3.292-5.715 3.292z"></path></g><path d="m198.538 290.903c-2.399 0-4.761-1.131-6.241-3.246-2.411-3.443-1.574-8.19 1.869-10.601l202.83-142.023c3.443-2.411 8.19-1.575 10.601 1.869s1.574 8.19-1.869 10.601l-202.83 142.023c-1.329.931-2.852 1.377-4.36 1.377z" fill="#ddebfd"></path><path d="m292.339 204.666h15.223v15.223h-15.223z" fill="#bed9fd" transform="matrix(.819 -.574 .574 .819 -67.512 210.434)"></path><path d="m10.023 411.686 86.067-49.833 59.225 59.225-49.833 86.067c-3.919 6.769-13.817 6.383-17.197-.67l-25.139-52.452-52.452-25.139c-7.054-3.381-7.439-13.279-.671-17.198z" fill="#bed9fd"></path><path d="m69.296 479.523h-26.87c-2.627-.004-4.777-2.155-4.782-4.782v-26.87c-.005-2.795 1.23-5.442 3.398-7.206l73.806-60.052 21.706 21.706-60.052 73.806c-1.764 2.168-4.411 3.402-7.206 3.398z" fill="#ddebfd"></path><path d="m175.121 396.984 9.896-9.896c15.402-15.402 15.696-40.906.002-56.011-15.209-14.638-39.405-14.461-54.397.531l-10.439 10.439c-1.392 1.392-1.392 3.649 0 5.041l49.896 49.896c1.393 1.393 3.65 1.393 5.042 0z" fill="#ddebfd"></path><path d="m185.019 331.077c-1.545-1.487-3.187-2.814-4.899-3.995 6.535 11.414 1.342 30.273-12.704 44.318l-10.234 10.234c-.446.446-.941.777-1.441 1.01l14.339 14.339c1.392 1.392 3.649 1.392 5.041 0l9.896-9.896c15.403-15.401 15.696-40.905.002-56.01z" fill="#bed9fd"></path><path d="m169.226 25.59c-68.421 47.909-81.767 146.901-29.809 221.104s149.544 95.519 217.965 47.61 81.767-146.901 29.809-221.104-149.544-95.519-217.965-47.61zm170.873 244.032c-54.702 38.303-133.655 20.264-176-40.211s-32.292-140.837 22.41-179.139 133.656-20.264 176.001 40.211 32.291 140.837-22.411 179.139z" fill="#eec06b"></path></g></svg>