<svg xmlns="http://www.w3.org/2000/svg" xmlns:xlink="http://www.w3.org/1999/xlink" id="Layer_1" height="512" viewBox="0 0 128 128" width="512" data-name="Layer 1"><linearGradient id="linear-gradient" gradientUnits="userSpaceOnUse" x1="105.886" x2="22.116" y1="105.867" y2="22.096"><stop offset="0" stop-color="#48a0dc"></stop><stop offset="1" stop-color="#88c057"></stop></linearGradient><path d="m4.75 64a59.47 59.47 0 0 1 1.832-14.675 1.75 1.75 0 0 1 3.392.864 55.756 55.756 0 1 0 109.776 13.811 55.161 55.161 0 0 0 -6.031-25.249 1.75 1.75 0 0 1 3.119-1.587 58.622 58.622 0 0 1 6.412 26.836 59.25 59.25 0 0 1 -118.5 0zm105.792-30.7a1.75 1.75 0 0 0 2.92-1.93c-.644-.974-1.328-1.945-2.035-2.887a1.75 1.75 0 0 0 -2.8 2.1c.665.885 1.31 1.799 1.915 2.717zm-99.782 8.87a1.748 1.748 0 0 0 2.312-.884 55.765 55.765 0 0 1 90.828-16.222 1.75 1.75 0 1 0 2.5-2.444 59.264 59.264 0 0 0 -96.524 17.238 1.749 1.749 0 0 0 .884 2.312zm67.64 73.03a1.763 1.763 0 0 0 .491-.07 52.849 52.849 0 0 0 19.934-10.876 1.75 1.75 0 0 0 -2.291-2.646 49.374 49.374 0 0 1 -18.623 10.161 1.75 1.75 0 0 0 .489 3.431zm27.3-24.1a50.169 50.169 0 0 1 -3.243 4.421 1.75 1.75 0 1 0 2.7 2.222 53.6 53.6 0 0 0 3.47-4.73 1.75 1.75 0 1 0 -2.932-1.912zm-28.052-49.4a7.8 7.8 0 0 1 -1.886.232 7.771 7.771 0 1 1 1.886-.232zm-.846-3.4a4.221 4.221 0 0 0 2.615-1.934 4.25 4.25 0 1 0 -2.617 1.947zm-16.876-7.247a7.8 7.8 0 0 1 -1.886.233 7.753 7.753 0 0 1 -6.628-11.747 7.75 7.75 0 1 1 8.514 11.514zm.317-11.163a4.25 4.25 0 1 0 1.457 5.833 4.257 4.257 0 0 0 -1.457-5.833zm-.061 35.21a7.7 7.7 0 0 1 -4.77 3.527 7.82 7.82 0 0 1 -1.886.232 7.752 7.752 0 1 1 6.656-3.759zm-4.452-7.636a4.22 4.22 0 0 0 -2.183-.61 4.272 4.272 0 0 0 -1.034.128 4.25 4.25 0 1 0 3.217.482z" fill="url(#linear-gradient)"></path></svg>